<?xml version="1.0" encoding="utf-8"?>
<!-- Generator: Adobe Illustrator 25.3.1, SVG Export Plug-In . SVG Version: 6.00 Build 0)  -->
<svg version="1.1" id="Livello_1" xmlns="http://www.w3.org/2000/svg" xmlns:xlink="http://www.w3.org/1999/xlink" x="0px" y="0px"
	 viewBox="0 0 1072 1072" style="enable-background:new 0 0 1072 1072;" xml:space="preserve">
<style type="text/css">
	.st0{fill:#F0C319;}
</style>
<g id="_x23_ffffffff">
</g>
<g id="_x23_f0c319ff">
	<path class="st0" d="M526.7,0h18.8c40.6,0.9,81.2,6,120.7,15.9C741.3,34.6,812.2,70,872.4,118.7c52,41.9,96.1,93.6,129.2,151.6
		c27.2,47.5,47,99.2,58.4,152.8c7.3,33.2,10.9,67.1,11.9,101v18.3c-1,80.6-20.2,161.1-56.4,233.1C981.6,843.5,933,904.1,874,952
		c-57,46.5-123.7,81-194.6,100.6c-44.3,12.3-90.2,18.7-136.1,19.4h-14.8c-43.3-0.7-86.5-6.4-128.4-17.4
		c-57.3-14.9-112.1-39.6-161.4-72.5c-53.2-35.5-100-80.6-137.5-132.5c-43-59.3-73.6-127.6-89.1-199.2C4.5,615,0.6,578.7,0,542.3
		v-14.9C1,470.1,11,413,30,358.9c22.7-65,58.2-125.4,103.7-177.1c51.8-58.8,116.6-106.2,188.5-137.4C386.6,16.2,456.5,1.3,526.7,0
		 M498.6,38.8c-78.9,5.7-156.2,30.8-223.6,72.3c-60.5,37.2-112.8,87.5-152.6,146.3C80,320.2,52.1,392.8,42,468
		c-12.9,94,1.3,191.6,41.5,277.6c30.3,65.7,75.4,124.4,130.6,171.2c46.7,39.6,100.8,70.5,158.7,90.5
		c51.1,17.8,105.1,26.9,159.2,27.3c85.6,0.9,171.2-20.8,246-62.5c62.1-34.4,116.4-82.4,158.7-139.3c46.1-62.1,77.4-135,90.6-211.2
		c9.5-55.3,9.7-112.2,0.6-167.5c-8.8-52.9-26.2-104.3-51.3-151.6c-31.4-59.5-75.3-112.2-127.5-154.5C789.8,100,719.4,66,645.1,49.4
		C597.1,38.6,547.6,35.3,498.6,38.8z"/>
</g>
<g id="_x23_000000ff">
	<path class="st0" d="M531.9,221.9h3.4c9.4,0.5,18.3,6.5,22,15.1c2.8,5.8,2.3,12.3,2.3,18.5c0,82.9,0,165.8,0,248.7
		c25.5,0,51,0,76.5,0c5.6,0,11.2,1.7,15.7,5.1c7.1,5.2,11.1,14.1,10.2,22.8c-0.5,6.4-3.6,12.3-8.2,16.7c-32.5,32.5-65,65-97.5,97.5
		c-3.3,3.2-6.4,6.8-10.5,8.9c-7.1,3.9-16.1,4-23.4,0.4c-4.2-2-7.4-5.5-10.7-8.7c-32.9-32.9-65.8-65.8-98.6-98.7
		c-7.7-7.5-10-20-5-29.6c4.2-8.8,13.8-14.6,23.5-14.3c25.5,0,51,0,76.5,0c0-85.7,0-171.4,0-257.1
		C508.3,234.2,519.2,222.8,531.9,221.9z"/>
	<path class="st0" d="M239.3,635.8c8.4-4.8,19.5-4.1,27.3,1.6c6.7,4.8,10.9,13,10.7,21.2c0,31.7,0,63.4,0,95.1
		c0,5.5-0.4,11.3,1.8,16.6c3.7,9.6,13.5,16.4,23.8,16.3c151.6,0.1,303.3,0,454.9,0c4.9,0,10,0.3,14.7-1.2c7.6-2.3,14-8.4,16.6-16
		c1.9-5,1.4-10.5,1.5-15.7c0-29.7,0-59.3,0-89c0-5.1-0.3-10.3,1.5-15.1c3.5-10.1,13.8-17.3,24.5-17c13-0.1,24.6,11,25.3,23.9v107.2
		c-0.8,19.8-9.4,39.1-23.8,52.8c-13.3,13-31.5,20.6-50,21.5h-468c-19-0.7-37.5-8.7-51-22.1c-13.9-13.5-22.4-32.4-23.2-51.7V656.7
		C226.6,648.1,231.6,639.9,239.3,635.8z"/>
</g>
</svg>
