<svg id="Layer_1" data-name="Layer 1" xmlns="http://www.w3.org/2000/svg" viewBox="0 0 77.15 71.8">
  <defs>
    <style>
      .cls-1 {
        fill: #21293e;
      }
    </style>
  </defs>
  <title>eo-wd</title>
  <polygon class="cls-1" points="52.2 8.13 49.99 6.46 49.85 6.46 16.74 52.85 18.95 54.51 19.09 54.51 52.2 8.13"/>
  <path class="cls-1" d="M15.07,12a25.25,25.25,0,0,0-2.8,3.05,24.44,24.44,0,0,0,4.05,34l1.16-1.64A22.46,22.46,0,0,1,11,21.24h0v-.7l.8-1h0c.27-.52.57-1,.89-1.54l0,.41-.93,1.13q-.43.82-.81,1.68v1.28l.94.45v1.78l.89,1.52.73.11.09-.52-.86-1.32-.17-1.29h.51l.21,1.32,1.24,1.81-.32.59L15,28.18l2,.48v-.32l.79.12-.08.56.62.11,1,.26,1.34,1.53,1.72.13.17,1.4-1.18.82,0,1.25-.17.77,1.7,2.12.13.73s.62.17.69.17a2,2,0,0,1,.26.16l5-7h-.18l-.82-1.29-.73-.35,0,.39-1.32.08-.49-.68-1.38-.28-1.14,1.32L21,30.34l-.13-2-1.31-.22.52-1-.15-.57-1.71,1.15-1.09-.13-.38-.85.23-.87.6-1.1,1.37-.69h2.65v.81l1,.44-.08-1.38.69-.69,1.38-.91.1-.64L26,20.24l1.47-.81-.13-.11,1-.94.37.1.17.21.37-.42.1,0-.42-.06L28.48,18v-.4l.22-.18h.49l.23.09.19.4.24,0v0l.07,0,.69-.11.1-.33.39.1v.36l-.37.25h0l.06.4L32,19h0l.29,0V18.4l-1-.45-.06-.26.82-.28,0-.79-.86-.52-.06-1.32-1.17.57h-.43l.11-1L28.15,14l-.66.5V16l-1.19.38-.48,1-.52.08V16.18L24.18,16l-.56-.36-.22-.83,2-1.17,1-.3.1.66L27,14l.05-.33.57-.08v-.11l-.25-.11L27.34,13l.71-.06.42-.44,0,0h0l.13-.13,1.47-.19.65.56L29,13.63l2.18.51.28-.73h1l.34-.63-.67-.17v-.8L30,10.87,28.55,11l-.82.43.06,1-.86-.13-.13-.58.82-.75L26.13,11l-.43.13-.19.5.56.1-.11.56-.95.05-.15.37-1.38,0a4.15,4.15,0,0,0-.09-.78l1.08,0,.82-.8-.45-.23-.6.58-1-.05-.59-.83H21.39l-1.33,1h1.22l.11.36-.32.29,1.35,0,.2.48-1.51,0L21,12.34l-1-.2-.5-.28H18.45a22.37,22.37,0,0,1,25-.94l1.18-1.65A24.41,24.41,0,0,0,15.07,12Zm9,8.29-.33.32h-.71l.11-.49.34,0,.07-.17.52-.07Zm.16-.88-.33.22-.42.07V19h.75Zm.64-.52.34.21-.27.23-.27-.23Zm-.45.56h0l.86.25v.44h-.72l-.19-.28Zm-.56-1.2.46.42-.46.11Zm-2,.07.64-.27h.88v.27h.2v.46H22.29l-.5-.14Zm-.13,1.2.52-.56h.74l-.95,1.33-.39-.21ZM21.1,16.4l.54.12-.19.72-.57.18-.36-.74Zm-1.34-1.89-1.11.06-.21-.25.79-.22.53-.08A2,2,0,0,1,19.76,14.51ZM18.93,13l0-.17h.81v.35l-.23.31H18.44V13Z"/>
  <path class="cls-1" d="M58.29,33l0-1.45L38.16,34.33l-1.91,2.75,19.49-2.72c-1.08,11-10.35,19.79-21.29,19.79a20.84,20.84,0,0,1-8.74-1.92l-1.42,2a23.15,23.15,0,0,0,10.16,2.34C47.18,56.61,57.88,46,58.29,33Z"/>
  <path class="cls-1" d="M58.14,27.13A23.41,23.41,0,0,0,52,14.37L50.6,16.44a21,21,0,0,1,4.9,9.81L42.59,28l-1.9,2.73,17.62-2.35Z"/>
</svg>
