<svg id="Layer_2" data-name="Layer 2" xmlns="http://www.w3.org/2000/svg" xmlns:xlink="http://www.w3.org/1999/xlink" viewBox="0 0 100 100">
  <defs>
    <style>
      .cls-1 {
        fill: none;
      }

      .cls-2 {
        clip-path: url(#clip-path);
      }

      .cls-3 {
        clip-path: url(#clip-path-2);
      }

      .cls-4 {
        fill: #fff;
      }
    </style>
    <clipPath id="clip-path">
      <rect class="cls-1" x="-2" y="-106" width="123.15" height="114.61"/>
    </clipPath>
    <clipPath id="clip-path-2">
      <rect class="cls-1" x="9" y="9" width="81" height="81"/>
    </clipPath>
  </defs>
  <title>eo</title>
  <g id="Artwork_11" data-name="Artwork 11">
    <g class="cls-3">
      <polygon class="cls-4" points="68.01 27.01 68.09 27.61 67.19 27.8 67.07 29.08 68.15 29.08 69.58 28.94 70.33 28.06 69.54 27.75 69.11 27.26 68.46 26.21 68.15 24.73 66.93 24.97 66.59 25.5 66.59 26.09 67.18 26.49 68.01 27.01"/>
      <polygon class="cls-4" points="66.99 27.51 67.05 26.71 66.34 26.4 65.34 26.63 64.59 27.82 64.59 28.59 65.46 28.59 66.99 27.51"/>
      <g class="cls-3">
        <path class="cls-4" d="M46.4,30.92l-.22.56H45.12V32h.25s0,.12,0,.27l.65,0,.41-.26.11-.51.52,0,.21-.43-.48-.1Z"/>
        <polygon class="cls-4" points="43.66 31.93 43.61 32.47 44.39 32.4 44.47 31.86 44 31.5 43.66 31.93"/>
        <path class="cls-4" d="M90,49.08c0-1.18-.07-2.36-.18-3.52a40.59,40.59,0,0,0-2.68-11c-.11-.26-.2-.52-.31-.78A40.45,40.45,0,0,0,79.22,22q-.31-.34-.63-.66c-.6-.62-1.21-1.23-1.85-1.81A40.39,40.39,0,1,0,88.87,59c.19-.79.35-1.59.5-2.4A40.35,40.35,0,0,0,90,49.5c0-.14,0-.28,0-.42M82.37,32.9l.23-.27q.47.9.87,1.83l-.38,0-.72.1Zm-5.85-7.07V24c.64.67,1.25,1.37,1.84,2.09l-.73,1.09-2.55,0-.16-.53Zm-48.86-4.5v-.07h.81l.07-.27h1.33v.58l-.38.51H27.66ZM29,23.14s.81-.14.88-.14,0,.81,0,.81L28,23.93l-.35-.42ZM85,39.22H82l-1.8-1.35-1.9.19v1.16h-.6L77,38.76l-3.29-.84V35.79l-4.18.32-1.29.7H66.62l-.81-.08-2,1.11v2.1l-4.11,3L60,44.17h.83l-.22,1.21-.59.21,0,3.16,3.55,4h1.55l.09-.24H68l.8-.75h1.58l.86.87,2.35.24L73.27,56l2.61,4.6-1.37,2.62.09,1.24,1.08,1.08v3l1.42,1.91v2.47h1.23a37.16,37.16,0,0,1-63-38V33.8l1.33-1.62c.46-.87.95-1.72,1.48-2.55l.06.68-1.54,1.87c-.48.9-.93,1.83-1.33,2.77v2.12l1.54.74v2.94l1.49,2.53,1.2.19.15-.87-1.42-2.19L18,38.28h.84l.35,2.19,2,3-.53,1,1.31,2,3.24.8v-.52l1.3.18-.12.93,1,.19,1.57.43L31.24,51l2.84.22.27,2.31-1.94,1.36-.09,2.07L32,58.2l2.81,3.52.22,1.2s1,.28,1.14.28,2.29,1.64,2.29,1.64V71.2l.77.21-.53,2.94L40,76.08,39.8,79l1.72,3,2.2,1.93,2.21,0,.21-.72-1.62-1.36.09-.68.29-.84.07-.85-1.1,0-.56-.7.91-.87.13-.67-1-.29.06-.62,1.45-.21,2.21-1.07.74-1.36,2.32-3-.53-2.32.71-1.23,2.13.06,1.44-1.14.46-4.47,1.59-2,.28-1.3-1.45-.46-1-1.57-3.27,0-2.6-1-.12-1.85-.87-1.51-2.35,0-1.35-2.13L42,49.15,42,49.8l-2.19.13L39,48.81l-2.29-.47-1.88,2.18-3-.5-.21-3.34-2.17-.37.87-1.64-.25-.94-2.84,1.9-1.79-.22L24.79,44l.39-1.44,1-1.82,2.27-1.15h4.38v1.34l1.58.73-.13-2.28,1.14-1.15,2.29-1.5.16-1.06,2.28-2.38L42.56,32l-.21-.17L44,30.23l.61.16.27.34L45.5,30l.15-.07L45,29.88l-.7-.23V29l.37-.3h.81l.37.16.32.65.4-.06v-.06l.11,0,1.14-.17.16-.56.65.16v.61l-.6.41h0l.09.66,2.06.64v0l.47,0,0-.89L49,29.5l-.1-.43,1.36-.46.06-1.3-1.42-.86-.09-2.19-2,.95h-.71l.19-1.66-2.65-.63-1.09.83v2.52l-2,.63-.78,1.64-.86.14v-2.1l-1.85-.26-.93-.6-.37-1.37,3.31-1.94,1.62-.49L41,23l.9-.05.07-.54.94-.14,0-.19-.41-.17-.09-.58,1.16-.1.7-.73,0-.05h0l.21-.22,2.44-.3,1.08.91L45.2,22.36l3.6.85L49.27,22h1.57l.56-1-1.11-.28V19.35L46.8,17.8l-2.41.28L43,18.79l.09,1.73-1.42-.21-.22-1,1.36-1.24L40.37,18l-.71.22-.3.83.92.15-.18.93-1.58.09-.24.62L36,20.89a6.31,6.31,0,0,0-.15-1.29l1.79,0L39,18.24l-.74-.37-1,1-1.64-.1-1-1.36h-2.1L30.34,19h2l.18.59-.52.48,2.22.06.34.81-2.5-.1L32,20.24l-1.58-.34-.83-.47-1.87,0A37,37,0,0,1,74,21.62l-.44.79-1.72.67-.72.78.16.92.89.12.53,1.34,1.53-.62.25,1.78h-.46l-1.25-.18-1.39.23-1.35,1.9-1.92.3-.28,1.65.81.19-.23,1.06-1.91-.39-1.75.39-.37,1,.3,2,1,.48h1.72l1.17-.11L69,35l1.82-2.37,1.2.25,1.18-1.07.22.84,2.9,2-.35.48L74.65,35l.5.71.81.18.94-.4,0-1.13.42-.21L77,33.81,75,32.73l-.5-1.43h1.61l.51.51L78,33l.06,1.45L79.52,36l.53-2.1,1-.54.18,1.71,1,1.07,1.93,0c.38,1,.71,1.94,1,2.94ZM31.09,27.4l1-.46.88.21-.3,1.18-.95.3Zm5.16,2.78V31H34l-.83-.23.21-.54,1.06-.44h1.46v.44Zm1,1.07V32l-.56.36-.69.13V31.25Zm-.63-.3v-.88l.76.69ZM37,32.73v.72l-.53.53H35.29l.18-.81.56,0,.11-.28Zm-2.94-1.48h1.22l-1.57,2.2-.65-.35.14-.92Zm5,1.23v.72H37.9l-.32-.47v-.67h.09Zm-1.09-1,.34-.36.57.36-.46.37Zm47.56,9.6.12-.13c0,.21.1.42.14.63Z"/>
        <path class="cls-4" d="M15.3,33.8V35c.4-1,.85-1.87,1.32-2.78Z"/>
      </g>
    </g>
  </g>
</svg>
