<?xml version="1.0" encoding="utf-8"?>
<!-- Generator: Adobe Illustrator 22.0.1, SVG Export Plug-In . SVG Version: 6.00 Build 0)  -->
<svg version="1.1" id="Layer_1" xmlns="http://www.w3.org/2000/svg" xmlns:xlink="http://www.w3.org/1999/xlink" x="0px" y="0px"
	 viewBox="0 0 38.9 40.3" style="enable-background:new 0 0 38.9 40.3;" xml:space="preserve">
<style type="text/css">
	.st0{fill:#22293E;}
</style>
<g>
	<path class="st0" d="M17.2,22.9L8.4,4l-1,0.8C2.8,8.5,0,14.4,0,20.4c0,11,8.7,19.9,19.4,19.9c10.4,0,19.1-8.6,19.4-19.2l0-1.2
		L17.2,22.9z M19.4,38.3C9.8,38.3,2,30.3,2,20.4c0-5,2.1-9.9,5.7-13.2L16,25.1l20.8-2.9C35.9,31.2,28.3,38.3,19.4,38.3z"/>
	<path class="st0" d="M38.8,17.3l-0.1-1C37.4,7,29.5,0,20.3,0c-3,0-5.9,0.7-8.5,2.1L11,2.5L18.7,20L38.8,17.3z M20.3,2
		C28.2,2,35,7.8,36.6,15.6L20,17.8L13.6,3.5C15.7,2.5,18,2,20.3,2z"/>
</g>
</svg>
