<?xml version="1.0" encoding="UTF-8" ?>
<!DOCTYPE svg PUBLIC "-//W3C//DTD SVG 1.1//EN" "http://www.w3.org/Graphics/SVG/1.1/DTD/svg11.dtd">
<svg width="1072pt" height="1072pt" viewBox="0 0 1072 1072" version="1.1" xmlns="http://www.w3.org/2000/svg">
<g id="#ffffffff">
</g>
<g id="#f0c319ff">
<path fill="#f0c319" opacity="1.00" d=" M 526.67 0.00 L 545.44 0.00 C 586.08 0.93 626.67 6.01 666.12 15.91 C 741.26 34.64 812.19 69.99 872.38 118.71 C 924.40 160.62 968.46 212.35 1001.62 270.33 C 1028.79 317.86 1048.63 369.57 1060.06 423.11 C 1067.33 456.30 1070.92 490.20 1072.00 524.14 L 1072.00 542.47 C 1071.04 623.11 1051.80 703.52 1015.57 775.59 C 981.63 843.54 932.98 904.07 874.03 951.96 C 817.03 998.46 750.29 1032.96 679.40 1052.60 C 635.13 1064.91 589.25 1071.25 543.32 1072.00 L 528.57 1072.00 C 485.29 1071.26 442.06 1065.64 400.19 1054.62 C 342.86 1039.69 288.11 1015.01 238.83 982.14 C 185.63 946.61 138.79 901.56 101.35 849.67 C 58.39 790.34 27.78 722.10 12.29 650.50 C 4.46 614.99 0.55 578.66 0.00 542.32 L 0.00 527.47 C 1.04 470.15 10.96 412.96 30.00 358.86 C 52.68 293.85 88.22 233.42 133.74 181.78 C 185.55 122.95 250.34 75.56 322.27 44.34 C 386.59 16.19 456.52 1.35 526.67 0.00 M 498.56 38.81 C 419.66 44.50 342.33 69.63 275.00 111.10 C 214.49 148.26 162.21 198.62 122.42 257.40 C 80.03 320.24 52.14 392.84 42.04 467.98 C 29.17 561.95 43.30 659.60 83.51 745.59 C 113.80 811.31 158.93 870.00 214.10 916.76 C 260.80 956.40 314.94 987.21 372.82 1007.24 C 423.91 1025.01 477.94 1034.19 532.03 1034.53 C 617.60 1035.47 703.27 1013.70 778.00 972.01 C 840.07 937.65 894.41 889.63 936.74 832.74 C 982.83 770.68 1014.17 697.72 1027.29 621.53 C 1036.77 566.24 1036.95 509.38 1027.89 454.02 C 1019.14 401.14 1001.72 349.71 976.56 302.39 C 945.15 242.92 901.26 190.21 849.03 147.90 C 789.83 99.96 719.44 65.97 645.09 49.38 C 597.13 38.61 547.57 35.27 498.56 38.81 Z" />
<path fill="#f0c319" opacity="1.00" d=" M 524.76 238.80 C 531.69 235.14 540.35 235.05 547.33 238.67 C 642.68 286.33 738.02 334.02 833.38 381.68 C 839.22 384.49 844.15 389.65 845.88 395.97 C 846.11 401.02 846.07 406.12 845.90 411.18 C 844.27 417.53 839.29 422.71 833.49 425.57 C 800.32 442.16 767.15 458.73 733.98 475.33 C 765.89 491.29 797.80 507.25 829.71 523.19 C 836.13 525.91 842.25 530.22 845.06 536.84 C 846.85 540.97 845.65 545.62 846.02 549.97 C 846.95 558.18 840.62 565.28 833.74 568.78 C 800.49 585.42 767.24 602.04 733.99 618.66 C 765.62 634.52 797.29 650.31 828.93 666.15 C 835.04 668.85 841.19 672.49 844.30 678.69 C 847.08 682.96 845.66 688.22 846.02 692.98 C 847.07 701.19 840.89 708.43 833.99 711.99 C 738.44 759.79 642.87 807.57 547.31 855.34 C 540.33 858.95 531.68 858.85 524.75 855.19 C 431.20 808.41 337.65 761.65 244.11 714.87 C 239.81 712.70 235.19 710.80 231.86 707.19 C 225.80 700.98 223.69 691.42 226.24 683.17 C 228.07 676.86 232.69 671.50 238.57 668.60 C 271.83 651.93 305.12 635.34 338.38 618.67 C 306.81 602.87 275.23 587.09 243.66 571.30 C 239.78 569.34 235.66 567.61 232.53 564.50 C 226.48 558.79 223.94 549.83 225.73 541.75 C 227.18 534.73 231.96 528.54 238.37 525.36 C 271.69 508.65 305.05 492.02 338.38 475.33 C 307.16 459.68 275.91 444.09 244.67 428.46 C 240.74 426.43 236.51 424.77 233.19 421.76 C 226.90 416.27 224.05 407.36 225.58 399.20 C 226.85 391.74 231.87 385.10 238.69 381.84 C 334.04 334.16 429.40 286.49 524.76 238.80 M 303.93 403.64 C 381.34 442.37 458.77 481.06 536.18 519.78 C 613.60 481.07 691.03 442.37 768.44 403.64 C 691.03 364.92 613.61 326.22 536.19 287.50 C 458.77 326.21 381.34 364.92 303.93 403.64 M 303.96 547.00 C 381.36 585.72 458.77 624.40 536.17 663.11 C 613.17 624.74 690.07 586.17 767.04 547.74 C 768.11 547.28 768.10 546.79 767.02 546.29 C 737.90 531.68 708.74 517.14 679.62 502.54 C 635.59 524.48 591.62 546.53 547.60 568.51 C 543.11 570.79 537.95 571.80 532.95 571.09 C 528.25 570.55 524.07 568.17 519.92 566.09 C 477.56 544.91 435.20 523.73 392.85 502.55 C 363.22 517.36 333.58 532.17 303.96 547.00 M 303.93 690.37 C 381.35 729.08 458.77 767.79 536.19 806.50 C 613.61 767.79 691.03 729.08 768.45 690.37 C 738.85 675.51 709.20 660.78 679.62 645.91 C 635.39 667.87 591.28 690.08 547.07 712.11 C 541.34 714.95 534.48 715.47 528.43 713.38 C 523.99 711.74 519.90 709.31 515.64 707.29 C 474.71 686.83 433.79 666.36 392.86 645.90 C 363.21 660.70 333.56 675.52 303.93 690.37 Z" />
</g>
</svg>
