<?xml version="1.0" encoding="UTF-8" ?>
<!DOCTYPE svg PUBLIC "-//W3C//DTD SVG 1.1//EN" "http://www.w3.org/Graphics/SVG/1.1/DTD/svg11.dtd">
<svg width="1072pt" height="1072pt" viewBox="0 0 1072 1072" version="1.1" xmlns="http://www.w3.org/2000/svg">
<g id="#ffffffff">
</g>
<g id="#f0c319ff">
<path fill="#f0c319" opacity="1.00" d=" M 526.63 0.00 L 545.49 0.00 C 586.12 0.93 626.70 6.01 666.14 15.92 C 741.03 34.59 811.75 69.77 871.81 118.26 C 921.44 158.12 963.84 206.92 996.50 261.55 C 1040.68 335.40 1066.59 420.08 1071.14 506.02 C 1071.09 511.69 1071.17 517.36 1071.16 523.04 C 1071.13 524.44 1071.22 525.92 1072.00 527.15 L 1072.00 538.59 C 1071.68 619.55 1052.84 700.42 1016.87 772.97 C 985.89 835.85 942.36 892.48 889.69 938.71 C 837.81 984.42 776.97 1019.92 711.62 1042.53 C 657.63 1061.39 600.55 1071.09 543.39 1072.00 L 528.56 1072.00 C 482.38 1071.22 436.26 1064.84 391.78 1052.35 C 334.72 1036.49 280.40 1010.93 231.67 977.28 C 181.42 942.53 137.08 899.21 101.34 849.64 C 57.57 789.22 26.66 719.51 11.42 646.46 C 4.18 612.28 0.54 577.37 0.00 542.44 L 0.00 527.44 C 1.05 470.14 10.96 412.97 29.99 358.89 C 54.13 289.63 92.91 225.58 142.75 171.80 C 195.76 114.57 261.31 68.96 333.60 39.58 C 394.73 14.46 460.59 1.31 526.63 0.00 M 498.52 38.81 C 443.64 42.83 389.46 56.09 338.94 77.91 C 272.33 106.46 212.25 149.93 164.06 204.04 C 114.48 259.22 77.69 325.77 57.06 397.01 C 39.73 456.48 33.99 519.22 39.44 580.89 C 46.25 659.58 72.52 736.43 114.88 803.07 C 151.57 860.78 200.23 910.85 256.85 949.20 C 300.92 979.03 349.81 1001.69 401.04 1016.11 C 494.18 1042.25 594.96 1040.63 687.16 1011.27 C 760.32 987.99 828.00 947.60 882.98 893.98 C 934.97 843.78 975.77 782.11 1001.63 714.63 C 1034.41 629.68 1042.75 535.67 1026.50 446.15 C 1016.69 391.90 997.58 339.39 970.56 291.36 C 939.87 236.82 898.65 188.32 850.16 148.81 C 790.73 100.40 719.93 66.09 645.14 49.39 C 597.14 38.62 547.56 35.27 498.52 38.81 Z" />
<path fill="#f0c319" opacity="1.00" d=" M 740.32 200.26 C 754.72 193.55 771.93 193.22 786.58 199.36 C 800.24 204.99 811.54 216.08 817.43 229.63 C 823.70 243.84 823.84 260.60 817.83 274.92 C 811.83 289.44 799.64 301.26 784.93 306.78 C 767.91 313.33 747.77 311.15 732.67 300.90 C 710.17 317.37 688.00 334.31 665.66 351.00 C 669.55 363.71 669.09 377.75 663.99 390.06 C 657.79 405.39 644.69 417.73 629.00 422.96 C 614.93 427.80 599.05 426.79 585.63 420.42 C 559.97 446.05 534.34 471.70 508.70 497.35 C 514.32 509.28 515.80 523.11 512.64 535.93 C 508.94 551.35 498.53 564.96 484.69 572.65 C 471.58 580.07 455.50 581.96 441.01 577.88 C 425.96 573.76 412.85 563.18 405.54 549.41 C 399.91 539.01 397.76 526.86 399.15 515.14 C 380.28 505.69 361.45 496.16 342.51 486.87 C 332.03 497.03 317.58 502.96 302.97 502.99 C 288.68 503.18 274.44 497.74 263.87 488.13 C 253.04 478.44 246.08 464.54 244.96 450.04 C 243.82 436.98 247.32 423.57 254.75 412.76 C 263.64 399.59 278.18 390.36 293.93 388.10 C 309.21 385.73 325.36 389.86 337.59 399.33 C 353.71 411.43 362.48 432.32 359.90 452.30 C 378.69 461.82 397.58 471.14 416.40 480.62 C 425.02 472.44 436.08 466.80 447.87 465.09 C 459.24 463.32 471.04 465.20 481.45 470.04 C 507.05 444.37 532.72 418.79 558.32 393.12 C 551.84 379.48 550.90 363.30 555.99 349.06 C 561.34 333.65 573.57 320.83 588.69 314.73 C 606.09 307.46 626.87 309.70 642.54 320.10 C 664.77 303.37 687.06 286.72 709.30 269.99 C 705.68 258.03 705.81 244.90 710.13 233.14 C 715.27 218.73 726.42 206.63 740.32 200.26 M 758.37 234.54 C 751.33 236.85 745.98 243.53 745.36 250.93 C 744.58 258.17 748.42 265.60 754.71 269.26 C 760.34 272.68 767.77 272.84 773.55 269.65 C 779.26 266.61 783.23 260.54 783.63 254.07 C 784.11 247.83 781.26 241.48 776.32 237.66 C 771.36 233.68 764.37 232.48 758.37 234.54 M 605.48 349.70 C 598.81 351.46 593.35 357.09 591.81 363.82 C 590.16 370.46 592.47 377.85 597.57 382.40 C 602.17 386.67 608.94 388.44 615.04 386.88 C 621.79 385.29 627.42 379.73 629.09 372.99 C 630.73 366.85 628.99 359.97 624.67 355.32 C 619.99 350.06 612.27 347.77 605.48 349.70 M 297.43 426.71 C 289.03 428.91 282.83 437.33 283.33 446.02 C 283.56 454.68 290.39 462.58 298.92 464.08 C 307.16 465.82 316.11 461.28 319.73 453.71 C 323.25 446.84 321.98 437.93 316.70 432.31 C 311.99 427.03 304.24 424.75 297.43 426.71 M 452.31 503.48 C 445.54 504.95 439.83 510.37 438.01 517.07 C 436.17 523.43 437.99 530.67 442.60 535.43 C 446.97 540.08 453.74 542.33 460.02 541.09 C 466.92 539.86 472.88 534.53 474.87 527.81 C 476.96 521.24 475.07 513.64 470.19 508.78 C 465.67 504.09 458.66 501.99 452.31 503.48 Z" />
<path fill="#f0c319" opacity="1.00" d=" M 706.70 407.06 C 706.29 396.96 714.98 387.66 725.10 387.48 C 751.35 387.40 777.60 387.40 803.85 387.48 C 813.94 387.66 822.64 396.92 822.25 407.00 C 822.26 542.50 822.23 678.00 822.26 813.49 C 829.16 813.52 836.05 813.47 842.95 813.50 C 849.76 813.45 856.35 817.42 859.61 823.38 C 862.88 829.17 862.81 836.67 859.44 842.41 C 856.16 848.19 849.70 852.02 843.04 851.99 C 636.68 852.00 430.31 852.00 223.95 851.99 C 216.79 852.03 209.90 847.58 206.87 841.12 C 203.95 835.13 204.44 827.64 208.17 822.11 C 211.59 816.87 217.70 813.48 223.97 813.51 C 230.89 813.47 237.81 813.52 244.74 813.49 C 244.76 744.00 244.74 674.50 244.75 605.01 C 244.76 600.44 244.37 595.62 246.41 591.38 C 249.35 584.53 256.58 579.81 264.05 579.95 C 288.38 579.92 312.70 579.95 337.02 579.93 C 340.65 579.90 344.42 579.78 347.85 581.18 C 355.15 583.84 360.35 591.26 360.29 599.05 C 360.36 670.53 360.27 742.02 360.34 813.51 C 373.15 813.46 385.96 813.56 398.77 813.46 C 398.73 767.62 398.75 721.79 398.76 675.95 C 398.60 666.12 407.17 657.19 417.01 656.98 C 442.98 656.88 468.95 656.96 494.92 656.94 C 502.41 656.78 509.65 661.50 512.62 668.36 C 514.63 672.60 514.31 677.41 514.32 681.99 C 514.32 725.82 514.29 769.66 514.33 813.50 C 527.11 813.51 539.89 813.48 552.66 813.51 C 552.72 718.68 552.67 623.86 552.69 529.03 C 552.74 524.11 552.21 518.90 554.40 514.32 C 557.37 507.50 564.56 502.83 572.01 502.95 C 596.35 502.92 620.69 502.95 645.03 502.93 C 648.67 502.91 652.44 502.79 655.88 504.21 C 663.14 506.88 668.33 514.29 668.24 522.05 C 668.28 619.21 668.21 716.36 668.28 813.51 C 681.07 813.48 693.87 813.50 706.66 813.50 C 706.73 678.02 706.66 542.54 706.70 407.06 M 745.25 426.02 C 745.27 555.18 745.22 684.35 745.27 813.51 C 758.07 813.49 770.87 813.49 783.66 813.51 C 783.72 684.34 783.66 555.18 783.69 426.02 C 770.88 425.99 758.06 425.99 745.25 426.02 M 591.18 541.65 C 591.34 632.26 591.22 722.88 591.24 813.49 C 604.05 813.52 616.85 813.48 629.66 813.51 C 629.71 722.84 629.70 632.17 629.66 541.50 C 616.84 541.60 604.00 541.30 591.18 541.65 M 283.34 813.51 C 296.14 813.48 308.95 813.52 321.75 813.49 C 321.75 748.49 321.73 683.50 321.76 618.51 C 308.95 618.48 296.15 618.51 283.34 618.49 C 283.30 683.50 283.30 748.50 283.34 813.51 M 437.34 813.50 C 450.13 813.51 462.93 813.48 475.72 813.51 C 475.76 774.17 475.76 734.83 475.72 695.49 C 462.93 695.51 450.13 695.50 437.34 695.49 C 437.29 734.83 437.30 774.16 437.34 813.50 Z" />
</g>
</svg>
