<svg xmlns="http://www.w3.org/2000/svg" viewBox="0 0 123.56 118.74">
  <defs>
    <style>
      .cls-1 {
        isolation: isolate;
      }

      .cls-2 {
        fill: #22293e;
      }
    </style>
  </defs>
  <title>money_dark</title>
  <g id="Layer_2" data-name="Layer 2">
    <g id="Money">
      <g id="_25-ecommerce_-_money_cash_finance" data-name="25-ecommerce - money cash finance" class="cls-1">
        <g id="_25-ecommerce_-_money_cash_finance-2" data-name="25-ecommerce - money cash finance">
          <path class="cls-2" d="M47,41.69c0-2.32,2.07-3.93,4.7-3.93a11.12,11.12,0,0,1,6.89,2.85L61,35.76a12.26,12.26,0,0,0-7.72-3.37V28.14H49.51v4.34c-4.87.83-8.26,4.51-8.26,9.28,0,9.92,14.84,9.36,14.84,14.91,0,2.68-2.15,4-4.51,4-4.4,0-7.77-3.46-7.77-3.46l-3.08,4.47A14.44,14.44,0,0,0,49.51,66v4.25h3.78V66a9.33,9.33,0,0,0,8.47-9.48C61.76,46.2,47,47.19,47,41.69Zm64-6.56H100.37a3.51,3.51,0,0,1,3.51,3.5v3.51h3.5a3.51,3.51,0,0,1,3.51,3.5V94.77a3.52,3.52,0,0,1-3.51,3.51H37.2a3.51,3.51,0,0,1-3.5-3.51v-3.5h-7v7a7,7,0,0,0,7,7h77.23a7,7,0,0,0,7-7V42.11A7,7,0,0,0,110.91,35.13Zm-14,42.12V21.09a7,7,0,0,0-7-7H12.63a7,7,0,0,0-7,7V77.25a7,7,0,0,0,7,7H89.86A7,7,0,0,0,96.87,77.25Zm-10.52,0H16.15a3.51,3.51,0,0,1-3.5-3.51V24.59a3.5,3.5,0,0,1,3.5-3.5h70.2a3.51,3.51,0,0,1,3.51,3.5V73.72A3.51,3.51,0,0,1,86.35,77.25Z"/>
        </g>
      </g>
    </g>
  </g>
</svg>
