<?xml version="1.0" encoding="UTF-8" ?>
<!DOCTYPE svg PUBLIC "-//W3C//DTD SVG 1.1//EN" "http://www.w3.org/Graphics/SVG/1.1/DTD/svg11.dtd">
<svg width="1072pt" height="1072pt" viewBox="0 0 1072 1072" version="1.1" xmlns="http://www.w3.org/2000/svg">
<g id="#ffffffff">
</g>
<g id="#f0c319ff">
<path fill="#f0c319" opacity="1.00" d=" M 526.36 0.00 L 545.68 0.00 C 585.72 0.94 625.70 5.89 664.59 15.53 C 740.27 34.15 811.74 69.64 872.32 118.67 C 923.99 160.28 967.81 211.58 1000.91 269.08 C 1026.17 313.04 1045.21 360.58 1057.05 409.89 C 1066.17 447.10 1070.77 485.31 1072.00 523.57 L 1072.00 542.65 C 1070.98 626.68 1050.07 710.44 1010.85 784.80 C 978.40 846.72 933.63 902.15 880.02 947.02 C 820.95 996.65 750.98 1033.22 676.51 1053.39 C 633.24 1065.16 588.47 1071.23 543.65 1072.00 L 528.34 1072.00 C 481.36 1071.20 434.45 1064.55 389.26 1051.65 C 333.12 1035.72 279.67 1010.44 231.66 977.27 C 178.28 940.36 131.59 893.76 94.75 840.32 C 49.12 774.49 18.68 698.24 6.41 619.09 C 2.45 593.78 0.42 568.18 0.00 542.56 L 0.00 527.33 C 0.98 474.07 9.64 420.94 26.12 370.26 C 48.62 300.95 85.54 236.42 133.74 181.79 C 185.56 122.93 250.37 75.54 322.32 44.33 C 386.52 16.22 456.33 1.40 526.36 0.00 M 498.55 38.81 C 410.11 45.16 323.68 76.04 251.02 126.80 C 194.51 166.31 146.19 217.53 110.24 276.38 C 73.08 337.25 49.10 406.17 40.89 477.04 C 34.13 534.86 37.32 593.87 50.62 650.56 C 59.43 687.81 72.50 724.07 89.63 758.31 C 121.17 821.92 166.80 878.37 221.83 923.18 C 266.94 959.91 318.59 988.57 373.59 1007.51 C 468.80 1040.46 574.08 1043.33 671.04 1016.08 C 707.76 1005.76 743.27 991.17 776.66 972.76 C 839.27 938.35 894.08 890.06 936.71 832.77 C 982.52 771.10 1013.77 698.67 1027.03 622.99 C 1036.31 569.90 1036.99 515.32 1029.13 462.00 C 1020.89 406.34 1002.99 352.13 976.59 302.44 C 945.16 242.93 901.24 190.18 848.97 147.84 C 789.78 99.94 719.41 65.97 645.10 49.39 C 597.13 38.61 547.56 35.27 498.55 38.81 Z" />
<path fill="#f0c319" opacity="1.00" d=" M 466.46 171.66 C 486.84 169.33 507.91 173.33 525.93 183.17 C 542.29 192.01 556.11 205.48 565.37 221.61 C 574.68 237.70 579.32 256.43 578.70 275.01 C 578.16 293.73 572.25 312.28 561.78 327.82 C 550.89 344.18 535.09 357.22 516.96 364.80 C 498.45 372.63 477.57 374.63 457.88 370.66 C 436.80 366.47 417.18 355.26 402.87 339.22 C 386.33 321.02 376.94 296.56 377.02 271.97 C 376.87 247.37 386.22 222.89 402.70 204.63 C 418.95 186.32 442.11 174.32 466.46 171.66 M 469.14 211.25 C 455.91 213.11 443.40 219.52 434.09 229.10 C 424.38 238.98 418.17 252.23 416.93 266.04 C 415.60 279.50 418.93 293.37 426.27 304.74 C 434.38 317.47 447.33 327.04 461.94 330.93 C 476.07 334.78 491.59 333.33 504.73 326.83 C 517.79 320.49 528.43 309.34 534.15 295.99 C 540.12 282.28 540.73 266.35 535.89 252.20 C 530.86 237.25 519.79 224.48 505.74 217.34 C 494.56 211.56 481.58 209.46 469.14 211.25 Z" />
<path fill="#f0c319" opacity="1.00" d=" M 760.96 269.95 C 781.35 263.31 804.05 264.07 823.97 272.03 C 854.68 283.98 877.72 313.38 881.70 346.13 C 884.41 366.32 880.28 387.39 869.95 404.97 C 859.45 423.17 842.55 437.55 822.93 445.06 C 799.70 454.10 772.90 453.07 750.35 442.51 C 746.86 407.73 726.39 375.33 696.70 356.96 C 696.94 336.17 704.47 315.56 717.69 299.53 C 728.89 285.80 744.09 275.37 760.96 269.95 M 769.93 308.80 C 756.06 314.28 744.61 325.86 739.65 339.97 C 760.97 358.91 776.56 384.07 784.53 411.43 C 804.65 413.47 825.30 402.96 835.43 385.45 C 843.63 371.84 845.13 354.49 839.48 339.65 C 834.38 325.97 823.40 314.63 809.89 309.10 C 797.28 303.83 782.62 303.73 769.93 308.80 Z" />
<path fill="#f0c319" opacity="1.00" d=" M 277.76 368.78 C 296.83 359.13 319.29 356.48 340.12 361.24 C 361.67 366.07 381.24 378.95 394.29 396.75 C 407.03 413.93 413.59 435.67 412.15 457.04 C 388.97 474.86 373.30 501.75 368.73 530.59 C 354.13 539.48 337.20 544.72 320.05 544.71 C 298.56 544.94 277.12 537.34 260.55 523.67 C 245.95 511.74 235.09 495.27 230.01 477.10 C 224.04 456.04 225.78 432.88 235.00 413.01 C 243.70 394.00 259.05 378.13 277.76 368.78 M 304.07 400.82 C 289.99 405.01 277.90 415.34 271.51 428.56 C 265.17 441.44 264.43 456.92 269.48 470.35 C 274.28 483.35 284.37 494.27 296.94 500.10 C 308.60 505.61 322.32 506.60 334.66 502.81 C 341.65 479.39 354.56 457.84 371.54 440.28 C 368.45 426.65 359.89 414.31 348.02 406.88 C 335.20 398.56 318.67 396.34 304.07 400.82 Z" />
<path fill="#f0c319" opacity="1.00" d=" M 592.67 369.80 C 614.91 357.83 642.11 355.64 666.01 363.78 C 696.73 373.85 720.99 401.10 727.31 432.82 C 731.45 452.64 728.94 473.80 720.12 492.04 C 710.88 511.35 694.73 527.25 675.26 536.18 C 650.83 547.62 621.42 547.51 597.06 535.92 C 593.62 501.31 573.28 468.84 543.63 450.67 C 543.28 417.38 563.31 385.21 592.67 369.80 M 613.63 403.60 C 601.12 409.47 591.19 420.36 586.33 433.28 C 607.54 452.37 623.38 477.40 631.23 504.86 C 650.54 506.92 670.41 497.31 680.90 480.99 C 689.51 468.07 691.91 451.29 687.36 436.45 C 683.12 422.25 672.66 410.03 659.22 403.75 C 645.08 396.83 627.82 396.84 613.63 403.60 Z" />
<path fill="#f0c319" opacity="1.00" d=" M 408.82 382.23 C 417.75 380.46 426.83 379.53 435.94 379.55 C 456.28 379.52 476.62 379.54 496.96 379.53 C 513.68 379.67 530.61 378.65 547.08 382.27 C 535.97 397.77 528.73 416.11 526.87 435.13 C 526.69 437.19 526.51 439.26 526.17 441.31 C 495.55 427.82 458.84 429.62 429.60 445.82 C 429.52 423.12 422.00 400.68 408.82 382.23 Z" />
<path fill="#f0c319" opacity="1.00" d=" M 469.55 455.75 C 488.86 453.04 509.02 456.48 526.20 465.73 C 543.83 475.06 558.26 490.25 566.71 508.31 C 574.63 525.06 577.23 544.20 574.31 562.48 C 569.45 594.68 546.18 623.19 515.68 634.54 C 493.41 643.11 467.82 642.61 445.93 633.13 C 429.35 626.06 414.97 614.01 405.03 598.99 C 393.74 582.05 388.28 561.31 389.85 541.00 C 391.21 521.00 399.38 501.57 412.64 486.54 C 427.13 469.92 447.69 458.73 469.55 455.75 M 471.42 495.63 C 457.98 498.45 445.81 506.75 438.21 518.19 C 431.17 528.61 428.08 541.59 429.61 554.07 C 431.30 568.86 439.61 582.69 451.79 591.23 C 463.85 599.88 479.64 603.01 494.11 599.75 C 509.66 596.38 523.39 585.59 530.32 571.27 C 535.86 560.31 537.24 547.39 534.42 535.46 C 531.33 522.36 523.06 510.58 511.79 503.22 C 500.07 495.41 485.18 492.65 471.42 495.63 Z" />
<path fill="#f0c319" opacity="1.00" d=" M 718.32 534.36 C 738.31 514.08 750.01 486.05 750.77 457.61 C 777.82 457.61 804.88 457.57 831.94 457.63 C 866.05 458.22 899.33 474.64 920.88 501.03 C 933.64 516.51 942.44 535.25 946.04 554.99 C 947.91 564.53 948.10 574.29 948.00 583.98 C 947.99 613.56 948.01 643.13 947.99 672.71 C 927.62 683.35 905.34 689.73 882.94 694.44 C 861.08 698.99 838.82 701.34 816.54 702.35 C 815.94 685.55 817.44 668.63 814.88 651.94 C 810.43 621.26 795.36 592.32 772.97 570.92 C 756.91 555.46 737.15 543.85 715.78 537.48 C 716.52 536.36 717.34 535.29 718.32 534.36 M 784.44 497.22 C 781.98 505.72 778.77 514.00 774.95 521.98 C 820.68 552.31 851.59 604.12 855.47 658.97 C 873.41 656.51 891.13 652.38 908.32 646.67 C 908.38 622.77 908.36 598.87 908.33 574.97 C 908.11 550.94 895.94 527.58 876.75 513.22 C 863.40 503.05 846.75 497.36 829.97 497.22 C 814.79 497.18 799.62 497.19 784.44 497.22 Z" />
<path fill="#f0c319" opacity="1.00" d=" M 213.46 571.47 C 232.65 558.43 255.73 551.23 278.93 551.07 C 304.94 551.05 330.94 551.07 356.95 551.06 C 360.49 551.05 364.03 551.23 367.57 551.48 C 368.42 581.20 381.38 610.29 402.92 630.79 C 374.41 639.31 348.76 657.01 330.78 680.72 C 317.92 697.56 308.89 717.33 304.72 738.12 C 300.65 756.87 302.27 776.14 301.93 795.17 C 254.04 792.41 206.73 782.60 161.13 767.89 C 160.82 741.91 161.09 715.92 161.00 689.93 C 161.16 676.30 160.26 662.52 162.88 649.04 C 168.31 617.74 187.12 589.16 213.46 571.47 M 219.15 619.17 C 207.51 632.98 200.82 650.87 200.66 668.94 C 200.62 692.05 200.67 715.17 200.64 738.28 C 221.12 743.81 241.89 748.32 262.90 751.35 C 264.92 727.54 271.70 704.15 282.81 682.98 C 296.91 655.82 318.05 632.48 343.40 615.38 C 339.50 607.45 336.38 599.15 333.89 590.68 C 315.25 590.68 296.62 590.60 277.99 590.73 C 255.48 591.13 233.50 601.86 219.15 619.17 Z" />
<path fill="#f0c319" opacity="1.00" d=" M 597.48 551.10 C 624.33 551.05 651.18 551.03 678.03 551.11 C 711.39 551.49 744.07 567.00 765.75 592.29 C 779.65 608.28 789.14 628.04 792.88 648.90 C 795.52 662.79 794.60 676.97 794.77 691.01 C 794.80 716.03 794.69 741.04 794.82 766.05 C 771.62 778.35 745.88 784.96 720.20 789.74 C 701.35 793.04 682.26 795.20 663.12 795.68 C 662.96 776.10 664.41 756.25 660.13 736.98 C 653.70 706.17 636.49 677.82 612.28 657.74 C 597.64 645.51 580.50 636.30 562.22 630.84 C 583.71 610.14 596.87 580.99 597.48 551.10 M 631.19 590.70 C 628.72 599.13 625.70 607.45 621.69 615.28 C 636.82 625.85 650.81 638.16 662.35 652.63 C 685.35 680.92 699.43 716.23 702.37 752.56 C 720.23 749.77 737.98 745.97 755.10 740.10 C 755.11 716.10 755.16 692.09 755.08 668.08 C 754.73 644.85 743.29 622.25 725.06 607.91 C 711.53 597.05 694.33 590.89 676.97 590.70 C 661.71 590.63 646.45 590.65 631.19 590.70 Z" />
<path fill="#f0c319" opacity="1.00" d=" M 375.29 668.25 C 395.01 654.45 419.01 646.93 443.07 646.96 C 470.05 646.94 497.03 646.86 524.01 647.00 C 555.75 647.35 586.97 661.28 608.61 684.47 C 622.93 699.66 633.18 718.67 637.90 739.02 C 641.89 755.04 640.88 771.65 641.00 788.00 C 640.99 812.70 641.01 837.39 640.99 862.08 C 614.51 875.73 585.18 882.83 555.90 887.42 C 478.19 898.94 398.52 887.81 324.20 863.75 C 324.01 836.82 324.17 809.89 324.12 782.96 C 324.23 770.31 323.49 757.53 325.97 745.04 C 331.30 714.21 349.57 686.00 375.29 668.25 M 379.89 718.02 C 369.66 731.41 363.88 748.14 363.77 764.99 C 363.76 788.06 363.77 811.13 363.77 834.20 C 409.70 846.71 457.39 853.55 505.06 852.18 C 537.66 851.16 570.32 846.41 601.31 836.03 C 601.38 812.35 601.37 788.66 601.32 764.98 C 601.22 742.59 590.90 720.60 573.93 706.03 C 559.72 693.55 540.90 686.51 521.98 686.60 C 495.01 686.62 468.04 686.56 441.07 686.63 C 417.29 687.05 394.15 699.03 379.89 718.02 Z" />
</g>
</svg>
