<svg id="Layer_1" data-name="Layer 1" xmlns="http://www.w3.org/2000/svg" viewBox="0 0 123.56 118.74">
  <defs>
    <style>
      .cls-1 {
        fill: #fefbe2;
        fill-rule: evenodd;
      }
    </style>
  </defs>
  <title>people_white</title>
  <g>
    <path class="cls-1" d="M100.37,39.83h0a9.67,9.67,0,0,0-8.78,9.94c.23,4.62,4.61,9,9.47,8.78a9,9,0,0,0,8.55-9.94,8.87,8.87,0,0,0-9.24-8.78"/>
    <path class="cls-1" d="M20.42,51.39h0a8.18,8.18,0,0,1,7.39,8.55c0,3.93-3.93,7.39-7.86,7.16-4.39,0-7.62-3.69-7.39-8.32a7.85,7.85,0,0,1,7.86-7.39"/>
    <path class="cls-1" d="M73.11,16.49h0a10.56,10.56,0,0,1-10.64,10.4A10.44,10.44,0,0,1,51.84,15.8c0-6,4.86-10.4,10.87-10.4,5.77,0,10.4,5.09,10.4,11.09"/>
    <path class="cls-1" d="M48.61,47.92h0c-.93,1.39-2.08,2.54-2.54,3.93-3.94,7.86-9.72,13.87-15.72,19.88A6.26,6.26,0,0,0,28,77.5v31.2c0,2.31.23,4.63-2.78,4.63s-3.69-1.86-3.69-4.4c.23-5.31.23-10.4.23-15.48-.23-1.39.69-3.7-1.62-3.7-2.07,0-1.61,2.31-1.61,3.46v15c0,2.31.46,5.09-3.24,5.09-3.23,0-3-2.78-3-4.86,0-9.71.23-19,0-28.43,0-1.61.69-3.23-1.85-5.77V85.13c0,2.08.46,4.16-2.55,4.16-2.54,0-2.31-2.08-2.31-3.93V74.27c0-3.93,1.85-6.24,6.24-6,3.47.23,6.71,0,10.17,0,6,0,8.32-2.08,11.09-7.39A166.71,166.71,0,0,1,50.92,32C53,29.2,55.54,27.36,59,30.59a5.33,5.33,0,0,0,7.17-.23c2.77-2.54,4.63-1.39,6.94.69,3,2.77,4.85,6.24,6.93,9.7,3.23,5.32,6.47,10.64,9.94,16a2,2,0,0,0,.69,1.16c1.84,1.39,4.39,2.08,7.85,2.08,3.93,0,8.09.23,12,0,5.09,0,7.4,2.54,7.4,7.16V80.28c0,2.07.23,4.62-2.77,4.62-3.47,0-3-2.55-3-4.86V67.1c-3,3-2.31,4.86-2.31,6.7v33.74c0,2.54.46,5.79-3.47,5.79-4.16,0-3.93-3.25-3.93-6.25V89.52c0-1.39.69-4.16-1.62-4.16-3,0-1.84,2.77-1.84,4.39C98.76,96,99,102,99,108c0,3-.93,5.55-4.17,5.32-3.69,0-3.46-3-3.46-5.32V70.8c.23-6.93-3.24-4.16-7.17-10.17a102.25,102.25,0,0,0-8.78-12.71c2.08,6.94,4.16,13.87,6.24,20.57,1.62,6.24.93,7.39-5.54,7.39C72.64,75.65,72.18,77,72.18,80v26.35c0,3.23,0,6.94-4.16,6.94-3.93,0-3.7-3.71-3.7-6.71V80.74c0-1.62,1.16-4.63-1.85-4.63-3.24,0-1.85,3-1.85,4.4v27c0,2.54-.46,5.09-3.23,5.55-3.7.7-4.62-2.08-4.62-5.08,0-9-.24-18.26,0-27.27,0-3.7-.93-5.09-4.86-4.86-5.31.23-6.24-1.38-4.85-6.47,2.08-6.93,4.16-13.86,6.24-21-.23-.23-.46-.23-.69-.46"/>
  </g>
</svg>
