<svg id="Layer_1" data-name="Layer 1" xmlns="http://www.w3.org/2000/svg" viewBox="0 0 27.11 53.33">
  <defs>
    <style>
      .cls-1 {
        fill: #fff;
      }
    </style>
  </defs>
  <title>point</title>
  <path class="cls-1" d="M27.11,13.56A13.56,13.56,0,1,0,12.65,27.07V52.42a.91.91,0,1,0,1.81,0V27.07A13.56,13.56,0,0,0,27.11,13.56M13.56,25.31A11.75,11.75,0,1,1,25.31,13.56,11.76,11.76,0,0,1,13.56,25.31"/>
  <path class="cls-1" d="M9,6.32a3.62,3.62,0,1,0,3.61,3.62A3.63,3.63,0,0,0,9,6.32m0,5.43a1.81,1.81,0,1,1,1.8-1.81A1.81,1.81,0,0,1,9,11.75"/>
</svg>
