<?xml version="1.0" encoding="UTF-8" ?>
<!DOCTYPE svg PUBLIC "-//W3C//DTD SVG 1.1//EN" "http://www.w3.org/Graphics/SVG/1.1/DTD/svg11.dtd">
<svg width="1072pt" height="1072pt" viewBox="0 0 1072 1072" version="1.1" xmlns="http://www.w3.org/2000/svg">
<g id="#ffffffff">
</g>
<g id="#f0c319ff">
<path fill="#f0c319" opacity="1.00" d=" M 526.47 0.00 L 545.57 0.00 C 586.17 0.94 626.71 6.01 666.11 15.91 C 741.25 34.64 812.19 69.99 872.37 118.71 C 959.61 188.82 1024.10 286.87 1053.22 394.99 C 1064.79 436.96 1070.70 480.37 1072.00 523.86 L 1072.00 546.47 C 1070.91 589.98 1065.06 633.43 1053.64 675.45 C 1033.74 749.91 997.27 819.83 947.89 878.98 C 903.48 932.29 848.68 976.95 787.38 1009.48 C 712.63 1049.45 628.23 1070.83 543.51 1072.00 L 528.48 1072.00 C 482.35 1071.22 436.27 1064.84 391.83 1052.36 C 336.15 1036.89 283.08 1012.19 235.27 979.74 C 180.74 942.69 133.03 895.58 95.48 841.37 C 53.10 780.52 23.67 710.71 9.68 637.89 C 3.60 606.47 0.51 574.50 0.00 542.51 L 0.00 527.38 C 1.05 470.12 10.96 412.97 29.98 358.92 C 54.04 289.87 92.66 226.00 142.27 172.31 C 192.61 117.85 254.27 73.84 322.32 44.32 C 386.56 16.20 456.40 1.39 526.47 0.00 M 498.51 38.81 C 451.03 42.31 404.05 52.65 359.55 69.58 C 291.87 95.10 229.93 135.68 179.48 187.53 C 128.55 239.39 89.26 302.60 65.32 371.24 C 43.16 434.07 34.25 501.42 38.46 567.88 C 43.32 648.67 68.63 728.07 111.07 796.96 C 145.87 853.58 192.19 903.06 246.18 941.79 C 292.97 975.26 345.60 1000.51 400.98 1016.09 C 492.04 1041.65 590.42 1040.72 680.92 1013.19 C 752.39 991.52 818.86 953.51 873.69 902.80 C 926.04 854.62 968.03 795.22 995.59 729.61 C 1032.27 643.23 1043.13 546.39 1027.87 453.88 C 1019.15 401.29 1001.86 350.13 976.90 303.03 C 945.45 243.27 901.39 190.30 848.94 147.82 C 789.78 99.94 719.45 65.99 645.17 49.40 C 597.16 38.62 547.56 35.27 498.51 38.81 Z" />
<path fill="#f0c319" opacity="1.00" d=" M 173.61 517.04 C 286.82 407.69 400.05 298.36 513.28 189.02 C 544.86 221.71 576.44 254.39 607.99 287.11 C 557.07 336.32 506.11 385.49 455.19 434.70 C 472.07 452.16 488.89 469.69 505.84 487.08 C 541.32 452.81 576.80 418.54 612.30 384.29 C 622.92 373.97 637.20 367.54 651.97 366.45 C 669.37 365.01 687.26 371.00 700.17 382.78 C 712.45 393.75 720.19 409.61 721.26 426.04 C 722.68 444.53 715.62 463.46 702.35 476.43 C 666.69 510.91 630.98 545.33 595.32 579.81 C 611.68 596.78 628.07 613.70 644.41 630.68 C 695.41 581.53 746.31 532.28 797.27 483.11 C 829.85 516.82 862.43 550.55 894.98 584.29 C 781.75 693.62 668.54 802.99 555.29 912.30 C 522.72 878.59 490.15 844.87 457.60 811.14 C 509.54 760.92 561.56 710.77 613.50 660.54 C 597.09 643.62 580.78 626.61 564.35 609.71 C 538.57 634.50 512.99 659.51 487.09 684.17 C 477.06 673.77 467.10 663.30 456.95 653.03 L 456.27 653.03 C 447.73 661.01 439.44 669.26 430.99 677.34 C 440.32 693.14 444.90 711.69 443.88 730.02 C 442.80 752.26 433.42 773.97 417.88 789.93 C 412.05 795.78 406.02 801.44 400.09 807.19 C 383.65 790.23 367.28 773.19 350.83 756.23 C 341.57 765.16 332.34 774.12 323.05 783.03 C 313.09 772.74 303.14 762.42 293.19 752.11 C 302.44 743.19 311.64 734.22 320.94 725.35 C 304.18 707.75 287.17 690.37 270.33 672.83 C 275.84 667.53 281.31 662.18 286.85 656.92 C 300.60 643.97 318.38 635.40 337.08 632.74 C 359.14 629.44 382.29 634.40 401.07 646.42 C 409.63 638.17 418.18 629.91 426.73 621.65 C 417.06 611.60 407.38 601.58 397.69 591.57 C 423.36 566.66 449.15 541.88 474.85 516.99 C 457.98 499.52 441.11 482.04 424.23 464.58 C 372.25 514.76 320.31 564.96 268.32 615.13 C 236.73 582.45 205.15 549.76 173.61 517.04 M 512.21 249.85 C 502.19 259.50 492.20 269.17 482.20 278.83 C 493.82 290.92 505.49 302.96 517.13 315.03 C 527.18 305.41 537.16 295.72 547.17 286.05 C 535.54 273.96 523.89 261.90 512.21 249.85 M 420.50 338.40 C 432.15 350.49 443.79 362.59 455.50 374.61 C 465.70 364.69 475.98 354.85 486.18 344.94 C 474.53 332.86 462.95 320.71 451.16 308.76 C 440.98 318.67 430.72 328.52 420.50 338.40 M 358.70 398.10 C 370.34 410.18 381.98 422.26 393.67 434.30 C 403.95 424.36 414.26 414.45 424.51 404.49 C 412.92 392.43 401.19 380.50 389.71 368.34 C 379.18 378.05 369.06 388.20 358.70 398.10 M 641.71 415.67 C 580.65 474.66 519.53 533.60 458.50 592.63 C 468.43 602.86 478.32 613.14 488.23 623.39 C 548.33 565.42 608.36 507.39 668.44 449.39 C 670.98 446.93 673.72 444.57 675.51 441.46 C 679.16 435.33 679.42 427.34 676.15 420.99 C 672.94 414.53 666.28 409.94 659.08 409.33 C 652.71 408.65 646.19 411.12 641.71 415.67 M 296.96 457.85 C 308.69 469.79 320.23 481.93 331.90 493.93 C 342.18 484.04 352.43 474.11 362.70 464.20 C 351.05 452.12 339.41 440.04 327.72 428.00 C 317.50 437.98 307.06 447.75 296.96 457.85 M 234.42 518.11 C 246.06 530.19 257.72 542.24 269.37 554.31 C 279.93 544.18 290.42 533.98 300.96 523.83 C 289.29 511.77 277.67 499.67 265.99 487.64 C 255.44 497.78 244.93 507.94 234.42 518.11 M 766.18 572.92 C 778.82 586.02 791.47 599.12 804.12 612.21 C 814.13 602.54 824.21 592.93 834.13 583.17 C 821.51 570.10 808.86 557.06 796.29 543.95 C 786.15 553.50 776.23 563.28 766.18 572.92 M 735.24 602.84 C 724.96 612.69 714.75 622.61 704.50 632.49 C 717.12 645.61 729.79 658.68 742.42 671.79 C 752.69 661.92 762.93 652.02 773.16 642.11 C 760.54 628.99 747.90 615.90 735.24 602.84 M 642.71 692.17 C 655.23 705.33 668.01 718.24 680.48 731.45 C 690.99 721.73 701.11 711.58 711.48 701.70 C 698.89 688.56 686.18 675.52 673.58 662.39 C 663.25 672.28 652.99 682.24 642.71 692.17 M 334.50 677.34 C 355.57 699.22 376.69 721.06 397.81 742.91 C 401.70 732.52 402.11 720.86 398.82 710.26 C 394.72 696.71 384.60 685.16 371.71 679.32 C 360.15 673.95 346.58 673.33 334.50 677.34 M 581.82 750.93 C 580.35 751.66 581.87 752.73 582.43 753.41 C 594.62 765.94 606.71 778.57 618.89 791.11 C 629.15 781.19 639.42 771.29 649.68 761.37 C 637.04 748.26 624.39 735.17 611.74 722.08 C 601.75 731.68 591.82 741.34 581.82 750.93 M 518.42 812.20 C 531.09 825.29 543.67 838.47 556.43 851.48 C 566.88 841.26 577.45 831.18 587.93 820.99 C 575.28 807.90 562.65 794.79 549.99 781.71 C 539.45 791.86 528.93 802.02 518.42 812.20 Z" />
</g>
</svg>
